# xmcd CD database file
#
# Track frame offsets:
#	150
#	17979
#	34526
#	51195
#	70494
#	85679
#	102285
#	118658
#	138354
#	151603
#	168620
#
# Disc length: 2527 seconds
#
# Revision: 1
# Processed by: cddbd v1.5.2PL0 Copyright (c) Steve Scherf et al.
# Submitted via: CDex 1.51
#
DISCID=8a09dd0b
DTITLE=Hush - A Lifetime
DYEAR=2005
DGENRE=Pop
TTITLE0=If you go breaking my heart
TTITLE1=Say a little prayer
TTITLE2=If I was
TTITLE3=A lifetime
TTITLE4=Sometimes
TTITLE5=Lovestruck
TTITLE6=That don´t make it right
TTITLE7=For how long
TTITLE8=To a better place
TTITLE9=Come to my rescue
TTITLE10=Drown
EXTD=YEAR: 2005
EXTT0=
EXTT1=
EXTT2=
EXTT3=
EXTT4=
EXTT5=
EXTT6=
EXTT7=
EXTT8=
EXTT9=
EXTT10=
PLAYORDER=
